<svg xmlns="http://www.w3.org/2000/svg" viewBox="0 0 140 106" width="140" height="106">
<defs>
<path d="M 21.94 11.05 C 26.63 13.00 30.44 16.52 33.67 20.35 C 39.80 27.65 44.50 36.62 48.94 45.05 C 52.95 53.47 57.61 61.54 61.84 69.84 C 54.66 59.75 48.40 48.98 40.94 39.06 C 34.59 30.33 26.90 20.93 17.26 15.74 C 13.42 13.55 9.30 13.01 5.00 12.47 C 10.06 9.37 16.44 8.79 21.94 11.05 Z" id="p1" />
<path d="M 75.79 10.01 C 86.99 17.68 99.38 20.66 112.16 24.84 C 115.33 25.79 117.60 27.84 120.09 29.90 C 123.57 32.87 129.75 31.55 133.09 34.91 C 135.13 36.77 135.37 39.10 136.08 41.62 C 134.66 39.39 133.66 37.01 131.12 35.87 C 127.29 34.11 122.24 33.68 118.64 31.35 C 116.08 29.71 113.98 27.87 110.97 27.03 C 105.16 25.21 99.89 26.24 94.92 23.12 C 89.65 20.12 82.96 18.46 78.36 14.65 C 76.77 13.44 76.21 11.90 75.79 10.01 Z" id="p2" />
<path d="M 92.95 23.70 C 93.95 23.73 94.76 24.06 95.36 24.69 C 89.63 25.25 84.09 24.94 78.48 26.52 C 70.77 28.40 63.89 32.88 59.64 39.64 C 56.90 43.67 55.94 48.12 53.98 52.49 C 53.18 51.35 52.25 50.23 51.82 48.89 C 52.49 45.16 55.55 41.58 57.14 38.18 C 57.60 36.73 57.25 35.00 57.23 33.50 C 58.42 33.80 59.61 34.12 60.79 34.44 C 63.35 32.33 63.59 31.92 63.40 28.60 C 64.53 28.92 65.68 29.29 66.84 29.46 C 69.06 29.12 69.56 27.32 70.46 25.57 C 72.78 25.79 75.05 25.90 77.33 25.30 C 82.44 24.01 87.67 23.37 92.95 23.70 Z" id="p3" />
<path d="M 108.18 28.02 C 111.53 28.84 115.07 28.93 116.19 32.83 C 113.17 31.82 110.57 30.11 108.18 28.02 Z" id="p4" />
<path d="M 96.89 40.28 C 100.07 40.33 102.80 44.32 105.91 43.12 C 108.53 42.61 111.17 41.52 113.83 41.37 C 118.55 41.56 123.39 44.46 128.02 45.33 C 129.67 45.42 131.37 44.86 133.00 44.55 C 131.65 45.25 130.27 46.14 128.79 46.50 C 123.28 46.43 118.01 42.69 112.44 44.50 C 108.59 45.33 105.43 47.93 101.68 45.36 C 96.90 41.93 91.68 44.30 87.82 47.82 C 84.13 51.31 83.27 55.51 81.25 59.94 C 81.40 55.47 81.95 51.23 84.37 47.37 C 87.00 43.00 91.73 40.11 96.89 40.28 Z" id="p5" />
<path d="M 80.44 64.08 C 80.81 70.94 81.64 78.28 80.17 85.03 C 78.96 90.97 75.18 96.20 69.48 98.50 C 65.54 99.89 61.63 101.38 57.79 98.84 C 61.49 97.11 65.00 96.52 68.36 94.37 C 74.24 90.65 78.06 84.46 79.54 77.74 C 80.49 73.31 80.21 68.64 80.44 64.08 Z" id="p6" />
<path d="M 74.47 65.12 C 74.85 69.95 75.29 75.24 74.15 80.00 C 73.27 83.68 71.17 86.95 67.74 88.72 C 64.56 90.18 61.29 91.53 57.89 89.91 C 61.69 87.68 65.65 87.24 68.76 83.76 C 73.86 78.53 74.49 72.10 74.47 65.12 Z" id="p7" />
</defs>
<g>
<use fill="#8b9eff" href="#p1" />
<use fill="#8b9eff" href="#p2" />
<use fill="#8b9eff" href="#p3" />
<use fill="#8b9eff" href="#p4" />
<use fill="#8b9eff" href="#p5" />
<use fill="#6db3f8" href="#p6" />
<use fill="#6db3f8" href="#p7" />
</g>
</svg>
